<svg xmlns="http://www.w3.org/2000/svg" xmlns:xlink="http://www.w3.org/1999/xlink" width="500" zoomAndPan="magnify" viewBox="0 0 375 374.999991" height="500" preserveAspectRatio="xMidYMid meet" version="1.0"><defs><g/></defs><g fill="#ffffff" fill-opacity="1"><g transform="translate(132.892832, 227.298148)"><g><path d="M 49.6875 -114.785156 C 23.121094 -114.785156 7.050781 -99.371094 7.050781 -79.367188 C 7.050781 -57.066406 20.988281 -45.09375 43.617188 -45.09375 L 55.261719 -45.09375 C 65.429688 -45.09375 71.496094 -40.339844 71.496094 -32.140625 C 71.496094 -23.613281 63.296875 -18.367188 52.144531 -18.367188 C 40.832031 -18.367188 32.960938 -23.941406 32.960938 -33.125 L 9.675781 -33.125 C 9.675781 -12.789062 27.382812 1.3125 52.964844 1.3125 C 78.546875 1.3125 94.78125 -14.101562 94.78125 -34.109375 C 94.78125 -56.410156 80.351562 -68.378906 57.722656 -68.378906 L 46.242188 -68.378906 C 35.746094 -68.378906 30.5 -73.136719 30.5 -81.335938 C 30.5 -89.859375 38.535156 -95.109375 49.6875 -95.109375 C 61 -95.109375 68.871094 -89.53125 68.871094 -80.351562 L 92.15625 -80.351562 C 92.15625 -100.355469 76.25 -114.785156 49.6875 -114.785156 Z M 49.6875 -114.785156 "/></g></g></g><g fill="#ffffff" fill-opacity="1"><g transform="translate(110.215608, 192.851046)"><g><path d="M 8.726562 -21.71875 L 26.238281 -30.382812 L 26.238281 -37.25 L 0.988281 -23.761719 L 0.988281 -19.492188 L 26.238281 -6.375 L 26.238281 -12.933594 Z M 8.726562 -21.71875 "/></g></g></g><g fill="#ffffff" fill-opacity="1"><g transform="translate(253.230438, 151.667172)"><g><path d="M -26.609375 23.144531 L -1.300781 36.632812 L -1.300781 29.703125 L -18.8125 21.164062 L -1.300781 12.5 L -1.300781 5.753906 L -26.609375 18.875 Z M -26.609375 23.144531 "/></g></g></g></svg>