<svg xmlns="http://www.w3.org/2000/svg" xmlns:xlink="http://www.w3.org/1999/xlink" width="500" zoomAndPan="magnify" viewBox="0 0 375 374.999991" height="500" preserveAspectRatio="xMidYMid meet" version="1.0"><defs><g/></defs><g fill="#ffffff" fill-opacity="1"><g transform="translate(66.195754, 217.315353)"><g><path d="M 13.835938 -34.4375 L 41.601562 -48.175781 L 41.601562 -59.066406 L 1.570312 -37.675781 L 1.570312 -30.90625 L 41.601562 -10.105469 L 41.601562 -20.507812 Z M 13.835938 -34.4375 "/></g></g></g><g fill="#ffffff" fill-opacity="1"><g transform="translate(116.662146, 271.935149)"><g><path d="M 78.78125 -182.007812 C 36.660156 -182.007812 11.179688 -157.566406 11.179688 -125.84375 C 11.179688 -90.484375 33.28125 -71.503906 69.164062 -71.503906 L 87.621094 -71.503906 C 103.742188 -71.503906 113.363281 -63.960938 113.363281 -50.960938 C 113.363281 -37.441406 100.363281 -29.121094 82.683594 -29.121094 C 64.742188 -29.121094 52.261719 -37.960938 52.261719 -52.523438 L 15.339844 -52.523438 C 15.339844 -20.28125 43.421875 2.078125 83.984375 2.078125 C 124.542969 2.078125 150.285156 -22.359375 150.285156 -54.082031 C 150.285156 -89.441406 127.402344 -108.421875 91.523438 -108.421875 L 73.324219 -108.421875 C 56.683594 -108.421875 48.363281 -115.964844 48.363281 -128.964844 C 48.363281 -142.484375 61.101562 -150.804688 78.78125 -150.804688 C 96.722656 -150.804688 109.203125 -141.964844 109.203125 -127.402344 L 146.125 -127.402344 C 146.125 -159.125 120.902344 -182.007812 78.78125 -182.007812 Z M 78.78125 -182.007812 "/></g></g></g><g fill="#004aad" fill-opacity="1"><g transform="translate(106.34903, 271.935149)"><g><path d="M 78.78125 -182.007812 C 36.660156 -182.007812 11.179688 -157.566406 11.179688 -125.84375 C 11.179688 -90.484375 33.28125 -71.503906 69.164062 -71.503906 L 87.621094 -71.503906 C 103.742188 -71.503906 113.363281 -63.960938 113.363281 -50.960938 C 113.363281 -37.441406 100.363281 -29.121094 82.683594 -29.121094 C 64.742188 -29.121094 52.261719 -37.960938 52.261719 -52.523438 L 15.339844 -52.523438 C 15.339844 -20.28125 43.421875 2.078125 83.984375 2.078125 C 124.542969 2.078125 150.285156 -22.359375 150.285156 -54.082031 C 150.285156 -89.441406 127.402344 -108.421875 91.523438 -108.421875 L 73.324219 -108.421875 C 56.683594 -108.421875 48.363281 -115.964844 48.363281 -128.964844 C 48.363281 -142.484375 61.101562 -150.804688 78.78125 -150.804688 C 96.722656 -150.804688 109.203125 -141.964844 109.203125 -127.402344 L 146.125 -127.402344 C 146.125 -159.125 120.902344 -182.007812 78.78125 -182.007812 Z M 78.78125 -182.007812 "/></g></g></g><g fill="#ffffff" fill-opacity="1"><g transform="translate(303.095881, 152.013055)"><g><path d="M -42.191406 36.695312 L -2.058594 58.085938 L -2.058594 47.097656 L -29.828125 33.554688 L -2.058594 19.820312 L -2.058594 9.125 L -42.191406 29.925781 Z M -42.191406 36.695312 "/></g></g></g><g fill="#004aad" fill-opacity="1"><g transform="translate(72.77016, 217.315353)"><g><path d="M 13.835938 -34.4375 L 41.601562 -48.175781 L 41.601562 -59.066406 L 1.570312 -37.675781 L 1.570312 -30.90625 L 41.601562 -10.105469 L 41.601562 -20.507812 Z M 13.835938 -34.4375 "/></g></g></g><g fill="#004aad" fill-opacity="1"><g transform="translate(309.041917, 152.013055)"><g><path d="M -42.191406 36.695312 L -2.058594 58.085938 L -2.058594 47.097656 L -29.828125 33.554688 L -2.058594 19.820312 L -2.058594 9.125 L -42.191406 29.925781 Z M -42.191406 36.695312 "/></g></g></g></svg>